<svg xmlns="http://www.w3.org/2000/svg" viewBox="0 0 46.8 39.6"><title>Mascot-UNC</title><g id="Layer_2" data-name="Layer 2"><g id="Layer_1-2" data-name="Layer 1"><path d="M19.35.3c-1,.38-1.91,1.14-1.91,2V2.22a3,3,0,0,1-.6.69A9.47,9.47,0,0,0,9,6.43,4.3,4.3,0,0,0,6.32,8.7a6.26,6.26,0,0,0-.54,2.69,11.86,11.86,0,0,0,.74,3.9,7.39,7.39,0,0,0-2.89,2.23,3.63,3.63,0,0,0-.74,2.25A6.26,6.26,0,0,0,4,23.15a3.48,3.48,0,0,1-1.71.54C.77,23.86,0,24.78,0,25.62c0,0,0,0,0,.06,0,.81.62,1.76,2.38,2.09A14,14,0,0,0,5.79,28a3.66,3.66,0,0,0,.95,2.47A2.19,2.19,0,0,0,7.91,31l0,.07a9.31,9.31,0,0,0,3.77,3.71,7.87,7.87,0,0,0,6.49,4.7c3.63.5,7.79-.81,9.67-3,.32,0,.62,0,1,0a11.59,11.59,0,0,0,1.84-.06,11,11,0,0,0,2.64-.66s0,.08,0,.12a1.58,1.58,0,0,0,0,.18A1.56,1.56,0,0,0,34,37.24a2.92,2.92,0,0,0,3.14-.38,6.51,6.51,0,0,0,2.62-4.54c2.46-1.32,7-4.56,7-10.57a13.76,13.76,0,0,0-.44-3.34,15.63,15.63,0,0,0,.09-1.6,10.57,10.57,0,0,0-3.89-8.71C39.71,6,35.79,5.66,31.47,7.23l-.13-.47a8,8,0,0,0,.69-3c0-.13,0-.25,0-.36a1.61,1.61,0,0,0-.57-1.2c-1.14-.83-3-.56-4-.39A6.36,6.36,0,0,0,22.26.46,3,3,0,0,0,19.35.3" fill="#fff"/><path d="M36.84,36.38a2.35,2.35,0,0,1-2.48.36c-.88-.55-.38-1.67.11-2.14a11.42,11.42,0,0,1-3.88,1.23c-1.29.15-2,0-3,.07-2.7,3.54-12.75,5.23-15.42-1.52a9.11,9.11,0,0,1-3.91-3.92A1.61,1.61,0,0,1,7.15,30a3.72,3.72,0,0,1-.79-2.7,12.42,12.42,0,0,1-3.86-.14c-2.67-.5-2.34-2.65-.1-2.89a4.23,4.23,0,0,0,2.49-1c-1.33-1.65-1.94-3.9-.77-5.42a7.5,7.5,0,0,1,3.15-2.28c-1-2.53-1.94-7.46,2-8.65h0a8.87,8.87,0,0,1,7.76-3.42c.13-.14.94-.83,1-1.21,0-1,2.87-2.48,4-1.22a5.77,5.77,0,0,1,5.19,1.32c.69-.13,2.76-.54,3.81.23.81.59,0,3.62-.39,4L31.07,8c9.4-3.8,15.62,2,14.69,10.45,2.23,8.67-4.82,12.61-6.5,13.48a5.89,5.89,0,0,1-2.41,4.44" fill="#15284b"/><path d="M22.9,37.12c-.2-.26-.52-.34-.33-.85a3.62,3.62,0,0,1-1.3.16s-.41,1-.87,1.09c-.72-.79-.08-1.16-.2-1.51l-1-.53-.28.1a1.74,1.74,0,0,1-1.32,1.58,2.11,2.11,0,0,1,.14-1.73l-1.26-.06a2.27,2.27,0,0,1-.84,1.09,1.81,1.81,0,0,1-.31-1.27l-1.61-.27a4.86,4.86,0,0,0,3.41,2.6,9.17,9.17,0,0,0,9.16-2.19l-.37-.14-1.89.95a2.31,2.31,0,0,0-1.16,1" fill="#7daed3"/><path d="M16.54,4.66c-1.67.67-4.46,1.71-4.28,4,0,.51,1.61,1.92,2.07,2.8,0,0-.77,1-1.1,1.45-.79-1.24-1.24-3.17-3-3.49a1.89,1.89,0,0,0-1.42.95c-1.14,2.54.45,5.53,1.52,7.36l-.47.47C8,14.87,6.87,12.5,8.11,9.39a2.29,2.29,0,0,1,3.32-.85,4.94,4.94,0,0,1,1.65-2.17c-.06-.08-.06-.24-.2-.24-.65.24-1.18,1-1.65,1.46l-.65-.24a7.76,7.76,0,0,1,5.95-2.7" fill="#a4a9ad"/><path d="M21.19,1.81c.09.28-.31.65-.65.87a1.81,1.81,0,0,1-1.46.24c-.4-.25.27-.86.52-1,.45-.2,1.39-.59,1.59-.09" fill="#7daed3"/><path d="M26.13,3.1a4.54,4.54,0,0,0-4-.85,3.12,3.12,0,0,1-3.45,1.52A6.27,6.27,0,0,0,16.4,7c1.45-.19,7.24-3.37,9.73-3.92" fill="#7daed3"/><path d="M15.87,6.18c-.63.22-2,.78-2,1.73,0,.3.27.45.65.46a11.76,11.76,0,0,0,4.11-1.24c.12.06.1.18.1.29-1.58.79-4.75,1.94-5.32,1.1a1,1,0,0,1-.06-.93A3.72,3.72,0,0,1,16,5.82Z" fill="#7daed3"/><path d="M11.62,16.47a1,1,0,0,1-1.32-.61,8.06,8.06,0,0,1,1.62-.18Z" fill="#7daed3"/><path d="M10.23,11.26c-.46-.06-1,.33-.85,1.84s.72,1.64,1.71,1.64,1-.33,1.31-.52c0,0-1.18-2.82-2.17-3" fill="#7daed3"/><path d="M9.08,18.84A7.32,7.32,0,0,1,6.9,20.16c-.43.26-.48.52.07,1a6.68,6.68,0,0,0,4,1.18l.24,1a7.36,7.36,0,0,0-2.55,2c-2.33-1.63-3.25-2.56-4-4.43-.87-2.41,1.91-4.39,3.25-4,.75.23.93,1.22,1.18,1.89" fill="#a4a9ad"/><path d="M8,18a3.64,3.64,0,0,0-2,3.2,3.14,3.14,0,0,1-.55-1.46A2.59,2.59,0,0,1,8,18" fill="#15284b"/><path d="M10,21.92a3.86,3.86,0,0,0-1.67,2.54,2.2,2.2,0,0,1-.89-1.07A4.49,4.49,0,0,1,10,21.92" fill="#15284b"/><path d="M5.7,24.4c-1.91,1.33-3,.95-3.68,1.34-.37.22.24.47.24.47,1.62.3,4,.55,5.21-.26A10.79,10.79,0,0,1,5.7,24.4" fill="#a4a9ad"/><path d="M5.49,26.14a1,1,0,0,1-.21-1.07,5.53,5.53,0,0,0,1.1.87,4.21,4.21,0,0,1-.9.2" fill="#15284b"/><path d="M37.9,20.08s-.23-2.08-1.42-1.95c.63.66.15,2,1.42,1.95" fill="#a4a9ad"/><path d="M19.4,8.68,20.28,11a2.25,2.25,0,0,1,.17,1.63,1.86,1.86,0,0,1-1,1,1.68,1.68,0,0,1-1.38.07,2.08,2.08,0,0,1-.93-1.29l-.88-2.33.94-.41L18,11.84c.2.54.46,1.11,1.06.84s.42-.87.22-1.41L18.46,9.1Z" fill="#fff"/><polygon points="20.14 8.35 21.08 7.94 23.77 9.71 23.78 9.71 22.82 7.17 23.77 6.76 25.33 10.9 24.38 11.31 21.7 9.54 21.69 9.54 22.64 12.08 21.7 12.49 20.14 8.35" fill="#fff"/><path d="M27.64,6.67a1,1,0,0,0-1-.09,1.19,1.19,0,0,0-.54,1.57,1,1,0,0,0,1.41.69,1.21,1.21,0,0,0,.65-.8l.49,1.29a2.77,2.77,0,0,1-.76.56,2,2,0,0,1-1.59,0,2.17,2.17,0,0,1-1.17-1.31,2.58,2.58,0,0,1,0-1.75,2,2,0,0,1,2.07-1.44Z" fill="#fff"/><path d="M31.73,28.26a4.41,4.41,0,0,1,1.38.65c.85.66,1.3,1.6.72,1.67a3.15,3.15,0,0,1-2.3-.45c-.72-.44.59-1,.2-1.87" fill="#7daed3"/><path d="M42.44,18.84a3.11,3.11,0,0,0-2.76-1.92c-1.62.15-1,2.11-.54,2.9s4,.49,3.3-1" fill="#7daed3"/><path d="M43,21.39c-1-1-3-.28-3-.28.72.58,1.86.07,2.35,1.45.2,1.05-.8,2-1.21,2.43s.31.88.77.62c1.2-.68,1.85-3.36,1.1-4.23" fill="#7daed3"/><path d="M38.45,29a16.15,16.15,0,0,0-1.08-1.92,5.71,5.71,0,0,0,1.41-.69c.64-.5,1.53-.91,1.94-.46s.53,1.12-.52,1.91A14.92,14.92,0,0,1,38.45,29" fill="#7daed3"/><path d="M30.38,29.53c.13.1.82-1.22.43-1.51-.78-.59-.79,1.12-.43,1.51" fill="#7daed3"/><path d="M10.71,21.51a8.37,8.37,0,0,1,.2-2.57c-1.36.24-2.13,1.28-3.39,1.71a4.94,4.94,0,0,0,3.19.86" fill="#fff"/><path d="M14.76,20.74a.88.88,0,0,0-1.08.18,2.66,2.66,0,0,0,.78,1.1c-1,0-1.18-.59-1.18-.59-.3.24-.31,1.08-.19,1.71a3.11,3.11,0,0,1,.37-3.54,2.6,2.6,0,0,1,1.3,1.15" fill="#fff"/><path d="M16.86,17.1c.69,1.72-.31,2.85-1.2,2.34-1-.59-1.47-2.2-1.7-2.65s-.49-.83-1.2-.65c0,2.07-2.12,2.88-.87,6.91a.52.52,0,0,1,.3-.09,4.14,4.14,0,0,1,.39-3.74c.27-.33-.18-1.25,0-1.18,2.83.77,3.86,3.45,3.66,4.3a1.4,1.4,0,0,1-1.15,1.17c-1.27.15-2.85-.05-3.72.93.06.34.42.57,1.36.85,0,0,3.36-.92,3.94.1.25.41.27.79,0,.85-1.22.22-2.46-.44-3.7,0-.26.08-.47.29-.75.37-.08-.08,0-.47,0-.61-.51-.51-1.48-.3-1.71-1.08a2.44,2.44,0,0,0-1.42,1.65s8-.2,12.14,4.48c.68.76.14,2.51.14,2.51-1.39-2.64-4.74-4.44-6.57-5.16-1.21-.48-5.16-1.35-7.17-.61,0,2.66,1.55,1.26,2.18,1.75-.33.23-.49.46-.49.67,2.35,2.72,4.27,4.05,8.74,4.35-.2-.41-.05-1.41-.64-2.2,1.31.52,2.18,2.43,3.34,3a4.19,4.19,0,0,0,4.53-1.32,5.84,5.84,0,0,0,3.84.37c-.12-.3-1-.85-.68-1.19,1.08.24,2.75.54,3.61-.37-7.5-1.87-7-5.35-6.62-6.62a5.4,5.4,0,0,1,5.24-3.35A5.68,5.68,0,0,1,29,19.74c0-.1.83.26.71.47,1.06,2,3.13,2.58,5.1,2.87,0-.27-.26-.55-.06-.79a10.53,10.53,0,0,0,4.49.55c.18,0,.51,0,.43.24A5.75,5.75,0,0,1,36,24.19c.24.33-.2.61-.37.75l1,1.08a2.68,2.68,0,0,0,1.65-.34c.32-.18,1.14-.53.51-1,.18-.3.47,0,.71,0a2.52,2.52,0,0,0,2-1.28c.24-.33,0-.59-.29-.81-3.8-1.84-8.4-2.39-10-6.66A6.72,6.72,0,0,0,27,11.68c-2.64,1.33-4.63,2.73-7.46,3.61-1.32.41-3,.5-3.27-.08a21,21,0,0,0-1.4-2.84,9.16,9.16,0,0,0-1.67,2.26C14.58,15,15,16.48,15.6,18c.24.58,1.13.88,1.26-.86" fill="#fff"/><path d="M16.16,31.18l-.68.2c-.62-.31-.62-.57-1.38-.41a3.69,3.69,0,0,0-1,.48c-.45-1.09-.91-1.49-1.68-1.51-.16-.07-.56-.32-.43-.43a7.49,7.49,0,0,1,5.14,1.68" fill="#15284b"/><path d="M23.13,30.88a5.9,5.9,0,0,1,.07,3.54,3.32,3.32,0,0,0,1.31-1.18,3.36,3.36,0,0,0-1.38-2.36" fill="#15284b"/><path d="M37.43,32.5a2.31,2.31,0,0,1-1.55-1.75,2.55,2.55,0,0,0,1-.28c-1.41-.58-1.62-.82-2-1.63a2.27,2.27,0,0,0,.85-.43,8.08,8.08,0,0,1-2.85-1.07A3.11,3.11,0,0,0,34,27c-4-1.35-4.63.62-4.69,1.29a2.87,2.87,0,0,0,1.28,2.5,6.12,6.12,0,0,0,4.63.57c.1.14,0,.32.06.47a6.5,6.5,0,0,1-5.43-.57c-.77-.41-1.93-1.49-1.65-2.13a10.69,10.69,0,0,1-1.16-.81,5.24,5.24,0,0,0,.45,1.66,2.76,2.76,0,0,1-1.38-2.36,3.6,3.6,0,0,1,2.26-3.15c1.54-.69,5.07-.69,5.91,1.18a5.39,5.39,0,0,0-3.39-.69A3.6,3.6,0,0,0,29,24.68l1,.72a2.23,2.23,0,0,0-1.39,1,2.79,2.79,0,0,0-1.56.06,5.52,5.52,0,0,1,1.72,1,3.34,3.34,0,0,1,2.84-1.69,6.39,6.39,0,0,1,5.61,3.68,5,5,0,0,1,0,5.1c-.7,1-1.84,1.57-2.09,1.35-.32-.41.37-1.14.55-1.42a.53.53,0,0,1,.49.36c.22-.64-.11-.92-.24-1.33a2.48,2.48,0,0,0,.14-1,1.35,1.35,0,0,0,1.38,0" fill="#a4a9ad"/><path d="M39.05,30.68c3.21-1.77,7.23-5.79,5.47-11.69a7.44,7.44,0,0,0-5.91-4.45,3.28,3.28,0,0,0,.54-2.41,3,3,0,0,1,1.36,2.55c.52.07,1.13-.87,1.26-1.39,1,.76.7,2.11.73,2.43.34.15.89-.39,1.11-.79.66.82.21,1.88,1,2.47,0-1.95,0-4-1.48-5.33-.26.53-.56.59-.56.59a2.55,2.55,0,0,0-1.38-2.12,1.21,1.21,0,0,1-.3,1c-.26-.29-.6-2.13-2.29-2.17a2.13,2.13,0,0,1,.12,1.48,5.16,5.16,0,0,0-2.63-2C39.72,8.24,41.54,10,41.54,10S41.41,9.56,40,8.93C36.08,7.12,31.1,8.8,27.92,11a5.94,5.94,0,0,1,1.44.72c2,1.15,2.5,3.77,3.62,4.88s2.43-.07,3.44-.53,6.56-1.21,7.66,4.63c.33,2.41-.39,6.1-5.28,9.27a2.41,2.41,0,0,1,.25.68m-9-19.82a3.8,3.8,0,0,1,1.55-.61,3.24,3.24,0,0,1,1.89,1.87,6.77,6.77,0,0,0-3.45-1.26m5,4.75a4.25,4.25,0,0,1-1.38.79c.46-1,.68-2.57.23-3.16A2,2,0,0,1,35,15.62M32.92,9.75a3.81,3.81,0,0,1,1.59-.5,3.36,3.36,0,0,1,1.8,2,7,7,0,0,0-3.39-1.52m4.91,4.82a7.25,7.25,0,0,0-1.61.59A3.71,3.71,0,0,0,36.67,12a2.53,2.53,0,0,1,1.17,2.59" fill="#a4a9ad"/><path d="M28.72,14.47c-.38-.53-.94-1.18-3.07-.89.54-.78,4.06-1.47,3.07.89" fill="#15284b"/><path d="M26.84,17.75c-1.9,1.81-7.94,3.55-8.14,4.66,1.54-.16.71,1,1.19,1.76a3.1,3.1,0,0,0,4.67.51c2.79-2.67,1.36-5.22,1.36-5.22a5.49,5.49,0,0,0,.92-1.71m-1.58,3.93c-.71-1.2-2.5-.16-2.76.13a3,3,0,0,0,1.08,1.27A1.44,1.44,0,0,1,22,22.44a1.82,1.82,0,0,0-.19,2.3,1.59,1.59,0,0,1-.95-2.4c1.24-1.32,2.57-1.51,4.1-2.22,1.09.36.33,1.57.33,1.57" fill="#15284b"/><path d="M28.15,17.23a1.61,1.61,0,0,0-.27-1.86c-1.78-1.9-5.8,1.44-7.9,3.64-.91.89-2.1.74-1.41-1a2,2,0,0,0-.82,1.77c.19,1.19,2,1.63,3.27,0,1.63-2.11,3.74-3.76,5.7-3.63a1.43,1.43,0,0,1,1.42,1.09" fill="#15284b"/></g></g></svg>